<svg width="21" height="18" viewBox="0 0 21 18" fill="none" xmlns="http://www.w3.org/2000/svg">
<path d="M13.8333 12.3334L10.5 9.00003M10.5 9.00003L7.16663 12.3334M10.5 9.00003V16.5M17.4916 14.325C18.3044 13.8819 18.9465 13.1808 19.3165 12.3322C19.6866 11.4837 19.7635 10.5361 19.5351 9.63894C19.3068 8.74182 18.7862 7.94629 18.0555 7.3779C17.3248 6.80951 16.4257 6.50064 15.5 6.50003H14.45C14.1977 5.5244 13.7276 4.61864 13.0749 3.85085C12.4222 3.08307 11.604 2.47324 10.6817 2.0672C9.75943 1.66116 8.75709 1.46949 7.75006 1.5066C6.74304 1.5437 5.75752 1.80861 4.86761 2.28142C3.97771 2.75422 3.20656 3.42261 2.61215 4.23635C2.01774 5.05008 1.61554 5.98797 1.43578 6.97952C1.25602 7.97107 1.30339 8.99047 1.57431 9.96108C1.84523 10.9317 2.33267 11.8282 2.99997 12.5834" stroke="#475467" stroke-width="1.66667" stroke-linecap="round" stroke-linejoin="round"/>
</svg>
