<svg width="101" height="17" viewBox="0 0 101 17" fill="none" xmlns="http://www.w3.org/2000/svg">
<path d="M10.0038 1.45453H12.6387V10.9574C12.6387 11.999 12.3925 12.9152 11.9001 13.7059C11.4124 14.4967 10.7258 15.1146 9.8404 15.5596C8.95498 16 7.92042 16.2202 6.73671 16.2202C5.54826 16.2202 4.51133 16 3.62591 15.5596C2.74049 15.1146 2.05394 14.4967 1.56625 13.7059C1.07856 12.9152 0.834717 11.999 0.834717 10.9574V1.45453H3.46966V10.7372C3.46966 11.3433 3.60224 11.883 3.86739 12.3565C4.13727 12.83 4.51606 13.2017 5.00375 13.4716C5.49144 13.7367 6.06909 13.8693 6.73671 13.8693C7.40432 13.8693 7.98197 13.7367 8.46966 13.4716C8.96208 13.2017 9.34087 12.83 9.60602 12.3565C9.87118 11.883 10.0038 11.3433 10.0038 10.7372V1.45453Z" fill="#101828"/>
<path d="M17.9601 9.60794V16H15.389V5.09089H17.8464V6.94459H17.9743C18.2252 6.33379 18.6253 5.84847 19.1746 5.48862C19.7285 5.12877 20.4127 4.94885 21.2271 4.94885C21.98 4.94885 22.6357 5.10983 23.1944 5.4318C23.7579 5.75377 24.1935 6.22015 24.5013 6.83095C24.8138 7.44175 24.9676 8.18275 24.9629 9.05396V16H22.3919V9.45169C22.3919 8.72252 22.2025 8.15197 21.8237 7.74004C21.4497 7.32811 20.9312 7.12214 20.2683 7.12214C19.8185 7.12214 19.4184 7.22157 19.068 7.42044C18.7224 7.61457 18.4501 7.89629 18.2513 8.26561C18.0571 8.63493 17.9601 9.08237 17.9601 9.60794Z" fill="#101828"/>
<path d="M33.024 5.09089V7.07953H26.7527V5.09089H33.024ZM28.301 2.47726H30.872V12.7187C30.872 13.0644 30.9241 13.3295 31.0283 13.5142C31.1372 13.6941 31.2792 13.8172 31.4544 13.8835C31.6296 13.9498 31.8237 13.9829 32.0368 13.9829C32.1978 13.9829 32.3445 13.9711 32.4771 13.9474C32.6144 13.9238 32.7186 13.9024 32.7896 13.8835L33.2229 15.8934C33.0855 15.9408 32.889 15.9929 32.6334 16.0497C32.3824 16.1065 32.0747 16.1397 31.7101 16.1491C31.0661 16.1681 30.4861 16.071 29.97 15.8579C29.4539 15.6401 29.0444 15.304 28.7413 14.8494C28.443 14.3949 28.2962 13.8267 28.301 13.1449V2.47726Z" fill="#101828"/>
<path d="M35.1742 16V5.09089H37.7452V16H35.1742ZM36.4668 3.5426C36.0596 3.5426 35.7092 3.40765 35.4157 3.13777C35.1221 2.86315 34.9753 2.53407 34.9753 2.15055C34.9753 1.76229 35.1221 1.43322 35.4157 1.16333C35.7092 0.888714 36.0596 0.751404 36.4668 0.751404C36.8787 0.751404 37.2291 0.888714 37.518 1.16333C37.8115 1.43322 37.9583 1.76229 37.9583 2.15055C37.9583 2.53407 37.8115 2.86315 37.518 3.13777C37.2291 3.40765 36.8787 3.5426 36.4668 3.5426Z" fill="#101828"/>
<path d="M45.8365 5.09089V7.07953H39.5652V5.09089H45.8365ZM41.1135 2.47726H43.6845V12.7187C43.6845 13.0644 43.7366 13.3295 43.8408 13.5142C43.9497 13.6941 44.0917 13.8172 44.2669 13.8835C44.4421 13.9498 44.6362 13.9829 44.8493 13.9829C45.0103 13.9829 45.157 13.9711 45.2896 13.9474C45.4269 13.9238 45.5311 13.9024 45.6021 13.8835L46.0354 15.8934C45.898 15.9408 45.7015 15.9929 45.4459 16.0497C45.1949 16.1065 44.8872 16.1397 44.5226 16.1491C43.8786 16.1681 43.2986 16.071 42.7825 15.8579C42.2664 15.6401 41.8569 15.304 41.5538 14.8494C41.2555 14.3949 41.1087 13.8267 41.1135 13.1449V2.47726Z" fill="#101828"/>
<path d="M50.7921 1.45453V16H48.2211V1.45453H50.7921Z" fill="#101828"/>
<path d="M58.2655 16.2131C57.1717 16.2131 56.2271 15.9858 55.4317 15.5312C54.6409 15.072 54.0325 14.4233 53.6064 13.5852C53.1802 12.7424 52.9672 11.7505 52.9672 10.6094C52.9672 9.4872 53.1802 8.50235 53.6064 7.65481C54.0373 6.80254 54.6386 6.13966 55.4104 5.66618C56.1821 5.18796 57.0889 4.94885 58.1305 4.94885C58.8029 4.94885 59.4373 5.05775 60.0339 5.27555C60.6353 5.48862 61.1656 5.82006 61.6248 6.26987C62.0889 6.71968 62.4534 7.2926 62.7186 7.98862C62.9837 8.67991 63.1163 9.50377 63.1163 10.4602V11.2486H54.1746V9.51561H60.6518C60.6471 9.02318 60.5406 8.58521 60.3322 8.20169C60.1239 7.81343 59.8327 7.50803 59.4587 7.28549C59.0893 7.06296 58.6585 6.95169 58.166 6.95169C57.6405 6.95169 57.1788 7.07953 56.7811 7.33521C56.3834 7.58616 56.0732 7.9176 55.8507 8.32953C55.6329 8.73673 55.5216 9.18417 55.5169 9.67186V11.1846C55.5169 11.8191 55.6329 12.3636 55.8649 12.8182C56.0969 13.268 56.4212 13.6136 56.8379 13.8551C57.2546 14.0918 57.7423 14.2102 58.301 14.2102C58.675 14.2102 59.0136 14.1581 59.3166 14.054C59.6196 13.9451 59.8824 13.7864 60.105 13.5781C60.3275 13.3698 60.4956 13.1117 60.6092 12.804L63.0098 13.0738C62.8583 13.7083 62.5695 14.2623 62.1433 14.7358C61.7219 15.2045 61.1821 15.5691 60.524 15.8295C59.8658 16.0852 59.113 16.2131 58.2655 16.2131Z" fill="#101828"/>
<path d="M69.3397 16.1917C68.4827 16.1917 67.7156 15.9716 67.0386 15.5312C66.3615 15.0909 65.8264 14.4517 65.4334 13.6136C65.0404 12.7756 64.8439 11.7576 64.8439 10.5596C64.8439 9.34752 65.0428 8.32479 65.4405 7.49146C65.843 6.65339 66.3851 6.02129 67.067 5.59515C67.7488 5.16428 68.5087 4.94885 69.3468 4.94885C69.986 4.94885 70.5116 5.05775 70.9235 5.27555C71.3354 5.48862 71.6621 5.74667 71.9036 6.0497C72.1451 6.348 72.3321 6.62972 72.4647 6.89487H72.5712V1.45453H75.1493V16H72.6209V14.2812H72.4647C72.3321 14.5464 72.1404 14.8281 71.8894 15.1264C71.6385 15.42 71.307 15.6709 70.8951 15.8792C70.4831 16.0876 69.9647 16.1917 69.3397 16.1917ZM70.057 14.0824C70.6015 14.0824 71.0655 13.9356 71.4491 13.642C71.8326 13.3437 72.1238 12.9294 72.3226 12.3991C72.5215 11.8688 72.6209 11.2509 72.6209 10.5454C72.6209 9.83994 72.5215 9.22678 72.3226 8.70595C72.1285 8.18512 71.8397 7.78029 71.4562 7.49146C71.0774 7.20263 70.611 7.05822 70.057 7.05822C69.4841 7.05822 69.0059 7.20737 68.6224 7.50566C68.2388 7.80396 67.95 8.21589 67.7559 8.74146C67.5618 9.26703 67.4647 9.86835 67.4647 10.5454C67.4647 11.2273 67.5618 11.8357 67.7559 12.3707C67.9547 12.901 68.2459 13.3201 68.6295 13.6278C69.0177 13.9309 69.4936 14.0824 70.057 14.0824Z" fill="#101828"/>
<path d="M92.1327 1.45453H94.7676V10.9574C94.7676 11.999 94.5214 12.9152 94.029 13.7059C93.5413 14.4967 92.8547 15.1146 91.9693 15.5596C91.0839 16 90.0493 16.2202 88.8656 16.2202C87.6772 16.2202 86.6402 16 85.7548 15.5596C84.8694 15.1146 84.1828 14.4967 83.6952 13.7059C83.2075 12.9152 82.9636 11.999 82.9636 10.9574V1.45453H85.5986V10.7372C85.5986 11.3433 85.7311 11.883 85.9963 12.3565C86.2662 12.83 86.645 13.2017 87.1327 13.4716C87.6203 13.7367 88.198 13.8693 88.8656 13.8693C89.5332 13.8693 90.1109 13.7367 90.5986 13.4716C91.091 13.2017 91.4698 12.83 91.7349 12.3565C92.0001 11.883 92.1327 11.3433 92.1327 10.7372V1.45453Z" fill="#101828"/>
<path d="M100.267 1.45453V16H97.6316V1.45453H100.267Z" fill="#101828"/>
</svg>
