<svg width="28" height="28" viewBox="0 0 28 28" fill="none" xmlns="http://www.w3.org/2000/svg">
<rect x="1" y="1" width="26" height="26" rx="13" fill="#F9F5FF"/>
<path d="M9.70508 17.5341V11.7727H10.8514V17.5341H9.70508ZM7.39968 15.2244V14.0824H13.161V15.2244H7.39968ZM17.9956 19.1193C17.4615 19.1193 16.9814 19.017 16.5552 18.8125C16.1319 18.6051 15.7939 18.321 15.541 17.9602C15.2882 17.5994 15.1532 17.1875 15.1362 16.7244H16.4146C16.4458 17.0994 16.612 17.4077 16.9132 17.6491C17.2143 17.8906 17.5751 18.0114 17.9956 18.0114C18.3308 18.0114 18.6277 17.9347 18.8862 17.7812C19.1475 17.625 19.3521 17.4105 19.4998 17.1378C19.6504 16.8651 19.7257 16.554 19.7257 16.2045C19.7257 15.8494 19.649 15.5327 19.4956 15.2543C19.3422 14.9759 19.1305 14.7571 18.8606 14.598C18.5936 14.4389 18.2868 14.358 17.9402 14.3551C17.676 14.3551 17.4103 14.4006 17.1433 14.4915C16.8762 14.5824 16.6603 14.7017 16.4956 14.8494L15.2896 14.6705L15.7797 10.2727H20.5779V11.402H16.8748L16.5978 13.8438H16.649C16.8194 13.679 17.0453 13.5412 17.3265 13.4304C17.6106 13.3196 17.9146 13.2642 18.2385 13.2642C18.7697 13.2642 19.2427 13.3906 19.6575 13.6435C20.0751 13.8963 20.4032 14.2415 20.6419 14.679C20.8833 15.1136 21.0027 15.6136 20.9998 16.179C21.0027 16.7443 20.8748 17.2486 20.6163 17.6918C20.3606 18.1349 20.0055 18.4844 19.551 18.7401C19.0993 18.9929 18.5808 19.1193 17.9956 19.1193Z" fill="#7F56D9"/>
<rect x="1" y="1" width="26" height="26" rx="13" stroke="white" stroke-width="2"/>
</svg>
